<svg width="22" height="22" viewBox="0 0 22 22" fill="none" xmlns="http://www.w3.org/2000/svg">
<path fill-rule="evenodd" clip-rule="evenodd" d="M5.00513 0.0325679C5.08428 0.00882233 5.16426 -0.0015364 5.24265 0.000183133H16.8306C16.9145 -0.00165871 17.0002 0.0103584 17.0846 0.0377857C17.2474 0.0906739 17.3803 0.192777 17.4725 0.322261L21.8423 6.14875C21.9412 6.27796 22 6.43952 22 6.61481C22 6.78215 21.9464 6.93697 21.8555 7.06308L11.6377 21.66C11.4984 21.8677 11.2625 21.9996 11.0019 22.0002L11 22.0002C10.9731 22.0002 10.9464 21.9988 10.92 21.996C10.8377 21.9874 10.7582 21.9656 10.6841 21.9321C10.5601 21.8762 10.4515 21.7874 10.3713 21.6728L0.144467 7.0631C0.0535578 6.93698 0 6.78215 0 6.61481C0 6.43749 0.06014 6.27421 0.161136 6.14427L4.60398 0.317587C4.69932 0.185688 4.8372 0.082946 5.00513 0.0325679ZM15.7911 1.53507H12.444L14.7033 4.88207L15.7911 1.53507ZM16.0035 5.84737L17.1203 2.41089L19.6977 5.84737H16.0035ZM2.3177 5.84737L4.92321 2.4303L5.94834 5.84737H2.3177ZM6.25711 1.53507L7.2548 4.86071L9.54118 1.53507H6.25711ZM12.8825 17.2053L19.7586 7.38226H15.5347L12.8825 17.2053ZM8.4391 5.84737L10.9943 2.13073L13.503 5.84737H8.4391ZM7.98716 7.38226H13.9448L10.9933 18.3137L7.98716 7.38226ZM6.3953 7.38226L9.08308 17.156L2.24144 7.38226H6.3953Z" fill="#EAE7E6"/>
</svg>
